<svg xmlns="http://www.w3.org/2000/svg" xmlns:xlink="http://www.w3.org/1999/xlink" width="1080" zoomAndPan="magnify" viewBox="0 0 810 809.999993" height="1080" preserveAspectRatio="xMidYMid meet" version="1.0"><defs><g/><clipPath id="eb476ef541"><path d="M 316.75 190.386719 L 493 190.386719 L 493 376.113281 L 316.75 376.113281 Z M 316.75 190.386719 " clip-rule="nonzero"/></clipPath></defs><rect x="-81" width="972" fill="#ffffff" y="-80.999999" height="971.999992" fill-opacity="1"/><rect x="-81" width="972" fill="#ffffff" y="-80.999999" height="971.999992" fill-opacity="1"/><g clip-path="url(#eb476ef541)"><path fill="#414042" d="M 487.507812 283.917969 L 487.738281 281.738281 C 490.773438 278.574219 493.289062 273.675781 492.113281 269.785156 C 491.285156 267.046875 486.957031 265.753906 485.996094 265.496094 C 485.890625 264.742188 485.386719 263.535156 484.023438 263.339844 C 482.832031 263.164062 482.035156 263.910156 481.660156 264.507812 C 480.535156 263.65625 479.269531 263.808594 478.523438 264.351562 C 477.699219 264.949219 477.480469 265.949219 477.945312 266.957031 C 478.074219 267.230469 478.273438 267.472656 478.53125 267.695312 C 478.140625 268.144531 477.832031 268.648438 477.625 269.195312 C 477.425781 269.726562 477.351562 270.277344 477.28125 270.8125 C 477.199219 271.410156 477.121094 271.976562 476.886719 272.5 C 476.660156 272.996094 476.058594 273.519531 475.527344 273.980469 C 474.960938 274.476562 474.511719 274.867188 474.421875 275.257812 C 474.277344 275.886719 475.234375 276.734375 475.683594 277.097656 C 475.617188 277.625 475.402344 279.390625 475.449219 280.066406 C 475.519531 281.042969 476.941406 281.707031 478.246094 282.007812 C 478.332031 282.027344 478.441406 282.046875 478.574219 282.066406 C 478.523438 282.53125 478.472656 283.03125 478.421875 283.523438 C 478.355469 283.53125 478.289062 283.539062 478.21875 283.546875 L 478.113281 283.558594 C 477.792969 283.59375 477.472656 283.632812 477.152344 283.671875 L 476.5 283.75 L 476.136719 283.796875 L 475.507812 283.875 C 475.179688 283.914062 474.855469 283.957031 474.523438 284 L 474.460938 284.007812 C 474.132812 284.050781 473.804688 284.09375 473.460938 284.140625 C 469.921875 284.613281 466.839844 285.082031 465.960938 285.21875 C 465.945312 285.222656 465.933594 285.222656 465.917969 285.226562 C 465.894531 285.230469 465.871094 285.234375 465.847656 285.238281 C 465.839844 285.238281 465.824219 285.242188 465.8125 285.242188 L 456.734375 279.035156 C 456.710938 278.9375 456.679688 278.820312 456.640625 278.695312 C 456.640625 278.6875 456.640625 278.683594 456.640625 278.675781 C 456.546875 278.351562 456.4375 278.015625 456.3125 277.679688 C 456.28125 277.59375 456.246094 277.496094 456.203125 277.390625 C 457.882812 272.445312 458.839844 267.632812 459.050781 263.039062 L 459.058594 262.90625 C 459.089844 262.203125 459.101562 261.621094 459.101562 261.070312 C 459.101562 240.800781 443.382812 224.3125 424.058594 224.3125 C 412.550781 224.3125 402.324219 230.160156 395.929688 239.175781 C 395.226562 239.238281 394.609375 239.304688 394.21875 239.367188 C 394.109375 239.386719 394.007812 239.40625 393.90625 239.421875 C 393.890625 239.425781 393.871094 239.429688 393.851562 239.433594 C 393.761719 239.449219 393.671875 239.46875 393.585938 239.484375 C 393.570312 239.488281 393.550781 239.492188 393.53125 239.496094 C 393.449219 239.515625 393.367188 239.53125 393.292969 239.550781 C 393.28125 239.550781 393.273438 239.554688 393.261719 239.554688 C 393.195312 239.570312 393.128906 239.585938 393.066406 239.601562 C 393.054688 239.605469 393.039062 239.609375 393.027344 239.613281 C 392.964844 239.628906 392.90625 239.644531 392.851562 239.65625 C 392.839844 239.660156 392.824219 239.664062 392.8125 239.667969 C 392.761719 239.683594 392.714844 239.695312 392.671875 239.707031 C 392.660156 239.710938 392.652344 239.714844 392.640625 239.714844 C 392.605469 239.726562 392.574219 239.738281 392.542969 239.746094 C 392.539062 239.75 392.53125 239.75 392.523438 239.75 C 392.492188 239.761719 392.46875 239.769531 392.449219 239.777344 C 392.445312 239.777344 392.441406 239.777344 392.4375 239.777344 L 390.285156 239.558594 C 389.59375 237.992188 388.582031 235.722656 387.457031 233.25 C 384.769531 227.332031 381.273438 219.90625 379.910156 218.15625 C 377.785156 215.425781 374.132812 213.339844 373.25 212.859375 C 373.554688 212.023438 373.910156 211.050781 374.191406 210.269531 C 374.976562 210.515625 376.644531 210.898438 377.289062 210.039062 C 377.695312 209.492188 378.472656 207.890625 378.703125 207.410156 C 379.277344 207.347656 380.542969 207.148438 380.761719 206.542969 C 380.898438 206.164062 380.730469 205.59375 380.519531 204.871094 C 380.324219 204.195312 380.101562 203.429688 380.179688 202.894531 C 380.261719 202.324219 380.503906 201.808594 380.761719 201.261719 C 380.988281 200.773438 381.226562 200.265625 381.34375 199.714844 C 381.351562 199.6875 381.355469 199.65625 381.359375 199.628906 C 381.363281 199.621094 381.367188 199.609375 381.371094 199.597656 C 381.730469 197.648438 381.320312 195.902344 380.152344 194.410156 C 378.367188 192.121094 375.09375 190.914062 372.808594 190.765625 C 367.867188 190.433594 359.867188 195.394531 356.960938 200.589844 C 354.578125 204.851562 356.558594 207.761719 359.535156 210.011719 C 356.070312 210.53125 353.085938 212.914062 351.882812 216.257812 L 342.367188 242.683594 C 342.367188 242.691406 342.367188 242.699219 342.367188 242.707031 C 342.363281 242.714844 342.359375 242.71875 342.359375 242.722656 C 341.3125 248.226562 340.996094 253.640625 340.945312 257.742188 C 326.914062 262.542969 316.75 276.394531 316.75 292.695312 C 316.75 293.25 316.765625 293.832031 316.792969 294.53125 L 316.800781 294.664062 C 317.089844 300.9375 318.761719 307.609375 321.773438 314.488281 C 327.082031 326.621094 336.359375 339.054688 348.601562 350.445312 C 360.140625 361.183594 373.589844 370.210938 386.464844 375.859375 C 386.46875 375.859375 386.472656 375.859375 386.476562 375.863281 C 386.507812 375.875 386.539062 375.882812 386.570312 375.882812 C 386.601562 375.882812 386.632812 375.875 386.664062 375.863281 C 386.667969 375.859375 386.671875 375.859375 386.675781 375.859375 C 399.554688 370.210938 413 361.183594 424.542969 350.445312 C 436.78125 339.054688 446.058594 326.621094 451.367188 314.488281 C 451.402344 314.40625 451.394531 314.316406 451.347656 314.242188 C 451.296875 314.167969 451.214844 314.121094 451.128906 314.121094 L 426.792969 314.121094 C 425.144531 311.335938 425.492188 310.476562 426.054688 309.0625 C 426.4375 308.105469 426.914062 306.917969 426.90625 304.820312 C 426.90625 304.816406 426.90625 304.816406 426.90625 304.8125 C 426.90625 300.011719 422.984375 296.105469 418.164062 296.105469 C 413.34375 296.105469 409.421875 300.011719 409.421875 304.808594 C 409.410156 306.914062 409.886719 308.105469 410.269531 309.0625 C 410.835938 310.476562 411.179688 311.335938 409.535156 314.121094 L 386.832031 314.121094 L 386.832031 309.953125 C 386.832031 309.863281 386.785156 309.777344 386.703125 309.730469 C 383.628906 307.914062 382.566406 308.335938 381.089844 308.917969 C 380.179688 309.277344 379.046875 309.726562 377.070312 309.726562 C 377.050781 309.726562 377.035156 309.726562 377.015625 309.726562 C 372.484375 309.726562 368.796875 306.054688 368.796875 301.542969 C 368.796875 297.035156 372.480469 293.367188 377.007812 293.363281 C 377.011719 293.363281 377.015625 293.363281 377.019531 293.363281 C 377.03125 293.363281 377.054688 293.363281 377.070312 293.363281 C 379.046875 293.363281 380.179688 293.8125 381.089844 294.171875 C 382.5625 294.753906 383.628906 295.179688 386.703125 293.359375 C 386.785156 293.3125 386.832031 293.226562 386.832031 293.136719 L 386.832031 292.699219 C 386.832031 292.695312 386.832031 292.695312 386.832031 292.695312 C 386.832031 291.421875 386.769531 290.136719 386.644531 288.867188 C 386.265625 285.023438 385.3125 281.308594 383.847656 277.835938 C 383.898438 277.816406 383.945312 277.796875 383.992188 277.78125 C 385.40625 277.21875 386.265625 276.878906 389.015625 278.476562 L 389.015625 282.757812 C 389.015625 282.902344 389.136719 283.019531 389.28125 283.019531 L 412.390625 283.019531 C 412.484375 283.019531 412.570312 282.972656 412.617188 282.894531 C 414.484375 279.785156 414.058594 278.71875 413.46875 277.242188 C 413.101562 276.328125 412.648438 275.191406 412.65625 273.1875 C 412.65625 268.675781 416.339844 265.003906 420.871094 265.003906 C 425.402344 265.003906 429.089844 268.675781 429.089844 273.191406 C 429.097656 275.191406 428.640625 276.328125 428.277344 277.242188 C 427.6875 278.71875 427.261719 279.785156 429.125 282.894531 C 429.175781 282.972656 429.257812 283.019531 429.351562 283.019531 L 447.433594 283.019531 C 449.105469 284.308594 450.742188 285.367188 451.03125 285.550781 C 451.347656 285.960938 454.128906 289.457031 459.84375 293.453125 C 462.660156 295.417969 464.371094 295.996094 467.425781 295.996094 C 467.453125 295.996094 467.476562 295.996094 467.503906 295.996094 C 467.582031 295.996094 467.660156 295.996094 467.742188 295.996094 C 467.75 295.996094 467.757812 295.996094 467.765625 295.996094 C 468.019531 295.992188 468.300781 295.988281 468.605469 295.976562 C 468.625 295.976562 468.640625 295.976562 468.660156 295.976562 C 468.738281 295.972656 468.824219 295.972656 468.90625 295.96875 C 468.953125 295.96875 469 295.964844 469.046875 295.964844 C 469.109375 295.964844 469.171875 295.960938 469.238281 295.957031 C 469.316406 295.957031 469.394531 295.953125 469.472656 295.949219 C 469.476562 295.949219 469.480469 295.949219 469.484375 295.949219 C 469.679688 295.941406 469.882812 295.933594 470.097656 295.925781 L 470.230469 295.921875 L 470.707031 295.898438 L 470.925781 295.890625 L 470.976562 295.886719 L 471.058594 295.882812 C 469.476562 305.214844 468.894531 318.191406 468.890625 318.324219 C 468.890625 318.324219 468.890625 318.328125 468.890625 318.328125 C 468.890625 318.332031 468.890625 318.332031 468.890625 318.332031 L 468.890625 343.621094 C 468.890625 343.765625 469.007812 343.882812 469.152344 343.882812 L 472.691406 343.882812 L 472.691406 364.480469 C 472.683594 364.492188 472.679688 364.5 472.671875 364.511719 C 472.671875 364.515625 472.667969 364.515625 472.667969 364.519531 C 472.660156 364.53125 472.652344 364.542969 472.644531 364.554688 C 472.644531 364.558594 472.640625 364.5625 472.636719 364.566406 C 472.628906 364.582031 472.621094 364.59375 472.609375 364.609375 C 472.609375 364.613281 472.605469 364.617188 472.601562 364.625 C 472.589844 364.640625 472.578125 364.652344 472.566406 364.671875 C 472.5625 364.675781 472.558594 364.683594 472.554688 364.691406 C 472.542969 364.707031 472.53125 364.722656 472.515625 364.742188 C 472.511719 364.75 472.507812 364.753906 472.5 364.761719 C 472.453125 364.824219 472.398438 364.894531 472.332031 364.972656 C 472.324219 364.980469 472.316406 364.988281 472.308594 364.996094 C 472.292969 365.015625 472.277344 365.039062 472.257812 365.058594 C 472.246094 365.070312 472.234375 365.085938 472.21875 365.101562 C 472.203125 365.117188 472.183594 365.140625 472.164062 365.160156 C 472.148438 365.175781 472.132812 365.191406 472.117188 365.207031 C 472.097656 365.226562 472.078125 365.25 472.058594 365.269531 C 472.042969 365.285156 472.023438 365.304688 472.003906 365.324219 C 471.984375 365.34375 471.960938 365.363281 471.941406 365.382812 C 471.921875 365.402344 471.898438 365.425781 471.878906 365.445312 C 471.855469 365.464844 471.832031 365.484375 471.808594 365.507812 C 471.789062 365.527344 471.765625 365.546875 471.742188 365.570312 C 471.714844 365.589844 471.691406 365.613281 471.667969 365.632812 C 471.640625 365.65625 471.617188 365.675781 471.589844 365.699219 C 471.5625 365.71875 471.539062 365.742188 471.511719 365.765625 C 471.484375 365.789062 471.453125 365.8125 471.425781 365.832031 C 471.398438 365.855469 471.371094 365.878906 471.339844 365.902344 C 471.308594 365.925781 471.277344 365.949219 471.246094 365.972656 C 471.214844 365.996094 471.1875 366.015625 471.15625 366.039062 C 471.121094 366.0625 471.085938 366.089844 471.050781 366.117188 C 471.019531 366.136719 470.988281 366.160156 470.957031 366.179688 C 470.917969 366.210938 470.871094 366.238281 470.828125 366.269531 C 470.800781 366.289062 470.773438 366.304688 470.746094 366.324219 C 470.671875 366.371094 470.597656 366.421875 470.519531 366.46875 C 470.496094 366.484375 470.464844 366.503906 470.4375 366.519531 C 470.386719 366.550781 470.332031 366.582031 470.277344 366.617188 C 470.242188 366.636719 470.207031 366.65625 470.171875 366.675781 C 470.121094 366.707031 470.070312 366.734375 470.015625 366.765625 C 469.976562 366.785156 469.9375 366.808594 469.898438 366.828125 C 469.84375 366.859375 469.792969 366.886719 469.738281 366.914062 C 469.695312 366.9375 469.652344 366.957031 469.609375 366.980469 C 469.554688 367.007812 469.5 367.035156 469.445312 367.0625 C 469.398438 367.085938 469.351562 367.109375 469.304688 367.128906 C 469.25 367.160156 469.191406 367.183594 469.132812 367.210938 C 469.085938 367.234375 469.035156 367.257812 468.984375 367.28125 C 468.925781 367.308594 468.863281 367.335938 468.800781 367.363281 C 468.75 367.382812 468.699219 367.40625 468.648438 367.425781 C 468.582031 367.453125 468.515625 367.480469 468.449219 367.507812 C 468.398438 367.53125 468.34375 367.550781 468.289062 367.574219 C 468.21875 367.601562 468.148438 367.628906 468.078125 367.65625 C 468.023438 367.675781 467.96875 367.695312 467.914062 367.71875 C 467.839844 367.746094 467.757812 367.773438 467.679688 367.800781 C 467.625 367.820312 467.574219 367.839844 467.519531 367.859375 C 467.429688 367.890625 467.339844 367.917969 467.246094 367.949219 C 467.199219 367.964844 467.152344 367.980469 467.105469 367.996094 C 466.964844 368.042969 466.820312 368.085938 466.671875 368.132812 C 466.433594 368.203125 466.207031 368.277344 465.984375 368.351562 C 465.9375 368.367188 465.890625 368.382812 465.84375 368.398438 C 465.644531 368.464844 465.449219 368.535156 465.261719 368.605469 C 465.191406 368.632812 465.128906 368.65625 465.0625 368.683594 C 464.992188 368.710938 464.925781 368.734375 464.859375 368.761719 C 464.859375 368.761719 464.859375 368.761719 464.855469 368.761719 C 464.855469 368.765625 464.855469 368.765625 464.855469 368.765625 C 464.792969 368.789062 464.730469 368.816406 464.671875 368.839844 C 464.542969 368.894531 464.414062 368.949219 464.292969 369.003906 C 464.226562 369.035156 464.160156 369.0625 464.097656 369.09375 C 458.4375 371.699219 458.894531 375.511719 458.945312 375.828125 C 458.949219 375.839844 458.949219 375.84375 458.949219 375.847656 C 458.96875 375.972656 459.078125 376.0625 459.207031 376.0625 L 484.601562 376.0625 C 484.746094 376.0625 484.863281 375.949219 484.863281 375.800781 L 484.863281 343.882812 L 488.265625 343.882812 C 488.402344 343.882812 488.515625 343.777344 488.527344 343.644531 L 490.695312 318.359375 C 490.707031 318.21875 492.117188 304.136719 491.257812 293.929688 C 490.804688 288.515625 489.605469 285.316406 487.507812 283.917969 Z M 379.726562 261.214844 C 377.285156 261.214844 375.074219 262.214844 373.488281 263.828125 C 372.011719 262.605469 370.449219 261.515625 368.820312 260.566406 L 369.546875 252.347656 L 371.035156 248.222656 C 373.566406 248.339844 377.40625 248.449219 381.074219 248.535156 C 382.867188 251.820312 386.3125 253.285156 389.195312 253.546875 C 389.347656 253.5625 389.535156 253.578125 389.746094 253.597656 C 389.269531 256.011719 389.019531 258.511719 389.019531 261.070312 L 389.019531 261.359375 C 386.269531 262.960938 385.40625 262.621094 383.992188 262.058594 C 383.042969 261.683594 381.859375 261.214844 379.777344 261.214844 C 379.761719 261.214844 379.742188 261.214844 379.726562 261.214844 Z M 376.714844 238.167969 L 374.726562 237.964844 L 375.570312 235.617188 C 375.742188 235.996094 375.910156 236.371094 376.082031 236.746094 C 376.300781 237.238281 376.511719 237.707031 376.714844 238.167969 Z M 376.714844 238.167969 " fill-opacity="1" fill-rule="nonzero"/></g><path fill="#c9f3f4" d="M 426.644531 314.644531 L 450.726562 314.644531 C 445.417969 326.597656 436.25 338.835938 424.183594 350.0625 C 412.792969 360.660156 399.546875 369.582031 386.832031 375.21875 L 386.832031 350.417969 C 388.40625 349.496094 389.371094 349.199219 390.164062 349.21875 C 390.78125 349.234375 391.296875 349.4375 391.917969 349.683594 C 392.035156 349.730469 392.160156 349.777344 392.285156 349.828125 C 393.179688 350.171875 394.3125 350.53125 396.128906 350.53125 C 396.148438 350.53125 396.167969 350.53125 396.183594 350.53125 C 401.007812 350.53125 404.929688 346.625 404.929688 341.824219 C 404.929688 341.460938 404.902344 341.097656 404.859375 340.746094 C 404.628906 338.921875 403.835938 337.269531 402.652344 335.976562 C 402.640625 335.957031 402.621094 335.941406 402.609375 335.925781 C 402.527344 335.839844 402.449219 335.753906 402.363281 335.671875 C 402.277344 335.585938 402.1875 335.503906 402.097656 335.417969 C 402.085938 335.410156 402.074219 335.394531 402.0625 335.382812 C 400.507812 333.976562 398.445312 333.121094 396.1875 333.121094 C 396.167969 333.121094 396.148438 333.121094 396.128906 333.121094 C 394.050781 333.121094 392.871094 333.589844 391.917969 333.964844 C 390.496094 334.53125 389.628906 334.871094 386.832031 333.234375 L 386.832031 314.644531 L 409.683594 314.644531 C 409.777344 314.644531 409.863281 314.597656 409.910156 314.519531 C 411.777344 311.410156 411.347656 310.34375 410.757812 308.867188 C 410.394531 307.953125 409.9375 306.816406 409.945312 304.8125 C 409.945312 300.300781 413.632812 296.628906 418.164062 296.628906 C 422.691406 296.628906 426.375 300.296875 426.378906 304.804688 C 426.378906 304.808594 426.378906 304.8125 426.378906 304.816406 C 426.386719 306.816406 425.933594 307.953125 425.566406 308.867188 C 424.976562 310.34375 424.550781 311.410156 426.417969 314.519531 C 426.464844 314.597656 426.550781 314.644531 426.644531 314.644531 Z M 347.777344 314.25 C 349.644531 317.359375 349.21875 318.425781 348.625 319.902344 C 348.261719 320.816406 347.804688 321.953125 347.8125 323.953125 C 347.8125 328.46875 351.5 332.136719 356.03125 332.136719 C 360.5625 332.136719 364.25 328.46875 364.25 323.957031 C 364.257812 321.953125 363.800781 320.816406 363.4375 319.902344 C 362.84375 318.425781 362.417969 317.359375 364.285156 314.25 C 364.332031 314.171875 364.417969 314.121094 364.511719 314.121094 L 386.308594 314.121094 L 386.308594 310.101562 C 383.558594 308.503906 382.695312 308.84375 381.28125 309.402344 C 380.332031 309.78125 379.148438 310.25 377.070312 310.25 C 377.050781 310.25 377.03125 310.25 377.015625 310.25 C 372.195312 310.25 368.273438 306.34375 368.273438 301.542969 C 368.273438 296.746094 372.195312 292.839844 377.015625 292.839844 C 377.03125 292.839844 377.054688 292.839844 377.070312 292.839844 C 379.148438 292.839844 380.332031 293.308594 381.28125 293.683594 C 382.695312 294.246094 383.558594 294.585938 386.308594 292.984375 L 386.308594 292.695312 L 386.121094 288.902344 C 385.746094 285.117188 384.804688 281.449219 383.359375 278.023438 C 382.496094 278.335938 381.394531 278.632812 379.722656 278.625 C 374.90625 278.625 370.980469 274.71875 370.980469 269.917969 C 370.980469 267.738281 371.792969 265.742188 373.128906 264.214844 C 367.0625 259.195312 359.574219 256.460938 351.792969 256.460938 C 332.757812 256.460938 317.273438 272.714844 317.273438 292.695312 C 317.273438 293.242188 317.289062 293.816406 317.320312 294.507812 L 317.324219 294.636719 C 317.609375 300.804688 319.246094 307.359375 322.1875 314.121094 L 347.550781 314.121094 C 347.644531 314.121094 347.730469 314.171875 347.777344 314.25 Z M 392.113281 349.195312 C 393.03125 349.5625 394.179688 350.011719 396.179688 350.007812 C 396.1875 350.007812 396.1875 350.007812 396.191406 350.007812 C 399.871094 350.003906 402.992188 347.582031 404.03125 344.253906 C 404.273438 343.484375 404.402344 342.667969 404.402344 341.824219 C 404.402344 337.3125 400.714844 333.644531 396.183594 333.644531 C 396.164062 333.636719 396.148438 333.644531 396.128906 333.644531 C 394.523438 333.644531 393.476562 333.9375 392.652344 334.242188 C 392.460938 334.3125 392.28125 334.382812 392.113281 334.453125 C 390.628906 335.039062 389.558594 335.464844 386.4375 333.605469 C 386.355469 333.558594 386.308594 333.472656 386.308594 333.382812 L 386.308594 314.644531 L 364.660156 314.644531 C 363.011719 317.429688 363.359375 318.292969 363.925781 319.707031 C 364.304688 320.664062 364.78125 321.855469 364.773438 323.957031 C 364.773438 328.757812 360.851562 332.660156 356.03125 332.660156 C 351.210938 332.660156 347.289062 328.757812 347.289062 323.957031 C 347.28125 321.851562 347.757812 320.664062 348.136719 319.707031 C 348.703125 318.292969 349.050781 317.429688 347.402344 314.644531 L 322.417969 314.644531 C 327.722656 326.597656 336.894531 338.835938 348.957031 350.0625 C 360.347656 360.660156 373.597656 369.582031 386.308594 375.21875 L 386.308594 350.269531 C 386.308594 350.175781 386.355469 350.089844 386.4375 350.042969 C 389.558594 348.183594 390.628906 348.609375 392.113281 349.195312 Z M 424.058594 224.835938 C 412.882812 224.835938 402.929688 230.441406 396.617188 239.117188 C 397.894531 239.015625 399.292969 238.933594 400.132812 238.910156 C 400.207031 238.910156 400.289062 238.90625 400.375 238.910156 C 400.984375 238.917969 401.832031 239.03125 402.121094 239.566406 C 402.234375 239.773438 402.246094 240.027344 402.15625 240.285156 C 402.140625 240.328125 402.125 240.367188 402.105469 240.410156 C 402.074219 240.472656 402.039062 240.535156 402 240.597656 C 401.796875 240.898438 401.46875 241.160156 401.070312 241.335938 C 400.835938 241.4375 400.621094 241.523438 400.414062 241.605469 C 400.085938 241.730469 399.792969 241.835938 399.546875 241.914062 C 399.882812 242.007812 400.289062 242.121094 400.734375 242.242188 C 400.957031 242.304688 401.1875 242.371094 401.425781 242.433594 C 402.609375 242.761719 403.917969 243.121094 404.816406 243.359375 C 405.839844 243.632812 406.503906 243.957031 406.828125 244.351562 C 406.871094 244.410156 406.910156 244.46875 406.945312 244.527344 C 407.074219 244.765625 407.097656 245.027344 407.011719 245.296875 C 406.996094 245.335938 406.980469 245.375 406.960938 245.414062 C 406.953125 245.425781 406.945312 245.4375 406.9375 245.449219 C 406.921875 245.476562 406.90625 245.5 406.886719 245.523438 C 406.875 245.539062 406.867188 245.550781 406.855469 245.5625 C 406.835938 245.585938 406.8125 245.609375 406.789062 245.628906 C 406.777344 245.640625 406.765625 245.652344 406.753906 245.660156 C 406.722656 245.691406 406.6875 245.714844 406.648438 245.742188 C 406.644531 245.746094 406.640625 245.75 406.636719 245.75 C 406.589844 245.78125 406.542969 245.804688 406.488281 245.832031 C 406.476562 245.839844 406.464844 245.84375 406.453125 245.851562 C 406.410156 245.867188 406.367188 245.886719 406.320312 245.90625 C 406.304688 245.910156 406.289062 245.917969 406.273438 245.921875 C 406.222656 245.941406 406.171875 245.957031 406.117188 245.972656 C 406.101562 245.976562 406.089844 245.980469 406.078125 245.984375 C 406.007812 246.003906 405.9375 246.019531 405.859375 246.035156 C 405.941406 246.074219 406.015625 246.109375 406.085938 246.148438 C 406.101562 246.160156 406.121094 246.167969 406.136719 246.175781 C 406.214844 246.21875 406.285156 246.261719 406.351562 246.308594 C 406.359375 246.3125 406.363281 246.316406 406.371094 246.324219 C 406.429688 246.363281 406.484375 246.40625 406.535156 246.449219 C 406.546875 246.460938 406.558594 246.46875 406.566406 246.480469 C 406.617188 246.523438 406.664062 246.574219 406.703125 246.621094 C 406.714844 246.632812 406.722656 246.640625 406.730469 246.652344 C 406.769531 246.703125 406.804688 246.753906 406.832031 246.804688 C 406.832031 246.804688 406.835938 246.808594 406.835938 246.808594 C 406.902344 246.929688 406.9375 247.054688 406.949219 247.179688 C 406.960938 247.308594 406.945312 247.441406 406.902344 247.574219 C 406.890625 247.613281 406.875 247.652344 406.855469 247.6875 C 406.847656 247.703125 406.835938 247.714844 406.828125 247.730469 C 406.816406 247.75 406.804688 247.769531 406.792969 247.789062 C 406.777344 247.804688 406.761719 247.824219 406.75 247.839844 C 406.738281 247.855469 406.722656 247.867188 406.710938 247.882812 C 406.691406 247.898438 406.671875 247.917969 406.652344 247.933594 C 406.640625 247.945312 406.628906 247.957031 406.613281 247.96875 C 406.589844 247.984375 406.566406 248.003906 406.542969 248.019531 C 406.527344 248.027344 406.511719 248.039062 406.496094 248.046875 C 406.46875 248.0625 406.445312 248.078125 406.417969 248.09375 C 406.398438 248.105469 406.375 248.113281 406.355469 248.121094 C 406.328125 248.136719 406.304688 248.148438 406.273438 248.160156 C 406.246094 248.171875 406.214844 248.183594 406.183594 248.195312 C 406.160156 248.203125 406.140625 248.210938 406.113281 248.21875 C 406.058594 248.238281 406 248.257812 405.933594 248.273438 C 405.9375 248.273438 405.941406 248.277344 405.941406 248.28125 C 405.980469 248.324219 406.015625 248.363281 406.046875 248.40625 C 406.054688 248.417969 406.0625 248.429688 406.070312 248.441406 C 406.097656 248.476562 406.117188 248.515625 406.136719 248.550781 C 406.140625 248.558594 406.148438 248.566406 406.152344 248.574219 C 406.171875 248.613281 406.1875 248.65625 406.203125 248.695312 C 406.207031 248.707031 406.210938 248.71875 406.214844 248.730469 C 406.222656 248.765625 406.234375 248.800781 406.238281 248.835938 C 406.242188 248.84375 406.242188 248.847656 406.242188 248.851562 C 406.25 248.894531 406.253906 248.933594 406.253906 248.96875 C 406.253906 248.980469 406.253906 248.988281 406.253906 249 C 406.253906 249.035156 406.25 249.070312 406.246094 249.105469 C 406.246094 249.105469 406.246094 249.109375 406.246094 249.113281 C 406.242188 249.148438 406.234375 249.183594 406.226562 249.21875 C 406.226562 249.226562 406.222656 249.238281 406.21875 249.246094 C 406.210938 249.277344 406.203125 249.3125 406.191406 249.34375 C 406.167969 249.402344 406.136719 249.457031 406.101562 249.507812 C 406.09375 249.523438 406.082031 249.535156 406.070312 249.550781 C 406.039062 249.589844 406.003906 249.625 405.964844 249.660156 C 405.953125 249.671875 405.941406 249.683594 405.925781 249.695312 C 405.816406 249.78125 405.679688 249.855469 405.515625 249.914062 C 405.488281 249.921875 405.457031 249.933594 405.429688 249.941406 C 405.371094 249.960938 405.308594 249.976562 405.246094 249.992188 C 405.207031 250 405.167969 250.011719 405.128906 250.019531 C 405.0625 250.03125 404.988281 250.042969 404.914062 250.054688 C 404.882812 250.058594 404.851562 250.066406 404.816406 250.070312 C 404.820312 250.074219 404.824219 250.082031 404.828125 250.085938 C 404.851562 250.121094 404.875 250.160156 404.894531 250.195312 C 404.898438 250.199219 404.898438 250.203125 404.902344 250.207031 C 404.921875 250.242188 404.9375 250.28125 404.953125 250.320312 C 404.957031 250.332031 404.960938 250.34375 404.964844 250.355469 C 404.972656 250.382812 404.984375 250.414062 404.988281 250.445312 C 404.992188 250.453125 404.992188 250.460938 404.996094 250.46875 C 405.003906 250.503906 405.007812 250.542969 405.011719 250.578125 C 405.011719 250.585938 405.011719 250.59375 405.011719 250.605469 C 405.011719 250.632812 405.011719 250.660156 405.011719 250.6875 C 405.011719 250.695312 405.011719 250.703125 405.011719 250.714844 C 405.007812 250.746094 405.003906 250.78125 405 250.8125 C 404.996094 250.816406 404.996094 250.824219 404.992188 250.832031 C 404.988281 250.859375 404.984375 250.882812 404.976562 250.90625 C 404.972656 250.914062 404.972656 250.925781 404.96875 250.933594 C 404.960938 250.960938 404.949219 250.988281 404.941406 251.015625 C 404.941406 251.015625 404.941406 251.019531 404.9375 251.019531 C 404.820312 251.316406 404.515625 251.523438 404.019531 251.632812 C 403.722656 251.699219 403.359375 251.734375 402.921875 251.734375 C 402.570312 251.734375 402.167969 251.710938 401.722656 251.667969 C 400.871094 251.585938 400.023438 251.4375 399.210938 251.277344 C 398.722656 251.175781 398.25 251.074219 397.796875 250.976562 L 397.628906 250.9375 C 397.496094 250.910156 397.363281 250.878906 397.222656 250.84375 C 397.191406 250.835938 397.152344 250.828125 397.121094 250.816406 C 397.015625 250.792969 396.910156 250.765625 396.800781 250.738281 C 396.773438 250.730469 396.746094 250.722656 396.71875 250.714844 C 396.601562 250.683594 396.484375 250.652344 396.363281 250.617188 C 396.324219 250.605469 396.285156 250.59375 396.246094 250.582031 C 396.132812 250.550781 396.023438 250.519531 395.910156 250.488281 C 395.875 250.476562 395.839844 250.464844 395.808594 250.457031 C 395.6875 250.421875 395.570312 250.386719 395.453125 250.347656 C 395.414062 250.339844 395.378906 250.328125 395.34375 250.316406 C 395.226562 250.277344 395.109375 250.242188 394.988281 250.203125 C 394.941406 250.1875 394.894531 250.171875 394.847656 250.160156 C 394.738281 250.125 394.632812 250.089844 394.523438 250.054688 C 394.472656 250.035156 394.425781 250.019531 394.375 250.003906 C 394.269531 249.96875 394.164062 249.933594 394.058594 249.898438 C 394.003906 249.878906 393.945312 249.859375 393.890625 249.839844 C 393.792969 249.808594 393.699219 249.777344 393.605469 249.742188 C 393.535156 249.71875 393.46875 249.695312 393.398438 249.671875 C 393.316406 249.644531 393.238281 249.617188 393.15625 249.585938 C 393.082031 249.558594 393.003906 249.535156 392.929688 249.507812 C 392.859375 249.480469 392.789062 249.457031 392.722656 249.433594 C 392.640625 249.402344 392.558594 249.375 392.480469 249.34375 C 392.421875 249.324219 392.359375 249.300781 392.300781 249.28125 C 392.207031 249.246094 392.117188 249.214844 392.023438 249.179688 C 391.984375 249.164062 391.945312 249.148438 391.90625 249.136719 C 391.792969 249.09375 391.683594 249.054688 391.578125 249.011719 C 391.5625 249.007812 391.546875 249.003906 391.535156 248.996094 C 391.527344 248.996094 391.523438 248.992188 391.519531 248.992188 C 390.242188 252.773438 389.542969 256.835938 389.542969 261.070312 L 389.542969 261.476562 C 389.554688 261.578125 389.511719 261.679688 389.417969 261.734375 C 389.417969 261.734375 389.417969 261.734375 389.414062 261.734375 C 386.339844 263.550781 385.273438 263.128906 383.800781 262.546875 C 382.882812 262.183594 381.746094 261.726562 379.730469 261.738281 C 375.195312 261.738281 371.507812 265.40625 371.507812 269.917969 C 371.507812 274.429688 375.195312 278.101562 379.726562 278.101562 C 379.742188 278.101562 379.761719 278.101562 379.78125 278.101562 C 381.757812 278.101562 382.890625 277.652344 383.800781 277.292969 C 385.277344 276.707031 386.339844 276.285156 389.414062 278.105469 C 389.496094 278.152344 389.542969 278.234375 389.542969 278.328125 L 389.542969 282.496094 L 412.246094 282.496094 C 413.890625 279.710938 413.546875 278.851562 412.980469 277.4375 C 412.597656 276.480469 412.121094 275.289062 412.132812 273.183594 C 412.132812 268.386719 416.054688 264.480469 420.875 264.480469 C 425.695312 264.480469 429.617188 268.386719 429.617188 273.1875 C 429.625 275.289062 429.148438 276.480469 428.765625 277.4375 C 428.203125 278.851562 427.855469 279.710938 429.503906 282.496094 L 446.773438 282.496094 C 445.929688 281.820312 445.125 281.105469 444.523438 280.4375 L 444.40625 280.304688 C 443.585938 279.394531 442.65625 278.359375 441.871094 277.242188 C 441.042969 276.0625 440.648438 275.199219 440.683594 274.617188 C 440.6875 274.402344 440.746094 274.222656 440.863281 274.082031 C 441.027344 273.875 441.304688 273.683594 441.730469 273.722656 C 441.574219 273.332031 441.507812 273.007812 441.523438 272.742188 C 441.527344 272.511719 441.589844 272.320312 441.714844 272.175781 C 441.910156 271.945312 442.242188 271.742188 442.761719 271.867188 C 442.695312 271.609375 442.679688 271.386719 442.703125 271.199219 C 442.722656 270.988281 442.792969 270.820312 442.914062 270.691406 C 443.105469 270.484375 443.34375 270.375 443.621094 270.371094 C 443.625 270.371094 443.628906 270.371094 443.632812 270.371094 C 443.957031 270.371094 444.328125 270.523438 444.75 270.824219 C 444.648438 270.496094 444.617188 270.214844 444.648438 269.988281 C 444.667969 269.777344 444.734375 269.609375 444.855469 269.476562 C 445.050781 269.269531 445.285156 269.164062 445.5625 269.160156 C 446.109375 269.152344 446.78125 269.570312 447.628906 270.4375 C 448.660156 271.492188 450.476562 273.304688 451.464844 274.289062 C 451.382812 273.886719 451.296875 273.367188 451.230469 272.734375 C 451.214844 272.578125 451.214844 272.429688 451.226562 272.285156 C 451.253906 271.867188 451.394531 271.492188 451.621094 271.234375 C 451.804688 271.03125 452.03125 270.917969 452.265625 270.914062 C 452.273438 270.914062 452.277344 270.914062 452.28125 270.914062 C 452.972656 270.914062 453.539062 271.792969 453.816406 272.320312 C 454.347656 273.328125 455.296875 275.292969 455.894531 276.660156 C 457.441406 271.957031 458.324219 267.386719 458.527344 263.015625 L 458.535156 262.882812 C 458.5625 262.191406 458.578125 261.613281 458.578125 261.070312 C 458.578125 241.089844 443.09375 224.835938 424.058594 224.835938 Z M 424.058594 224.835938 " fill-opacity="1" fill-rule="nonzero"/><path fill="#f9eee4" d="M 390.859375 248.742188 C 390.914062 248.761719 390.96875 248.785156 391.027344 248.804688 C 390.554688 250.195312 390.164062 251.621094 389.855469 253.082031 C 389.617188 253.058594 389.410156 253.042969 389.242188 253.027344 C 386.585938 252.785156 383.429688 251.464844 381.695312 248.550781 C 385.730469 248.648438 389.453125 248.714844 390.859375 248.742188 Z M 377.320312 238.230469 L 389.683594 239.496094 C 389.019531 237.996094 388.097656 235.925781 387.074219 233.671875 L 376.683594 236.804688 C 376.902344 237.296875 377.113281 237.769531 377.320312 238.230469 Z M 372.65625 212.949219 C 373.011719 211.976562 373.464844 210.746094 373.78125 209.855469 C 373.832031 209.71875 373.980469 209.648438 374.117188 209.695312 C 375.410156 210.148438 376.542969 210.160156 376.867188 209.726562 C 377.308594 209.136719 378.277344 207.074219 378.289062 207.050781 C 378.328125 206.96875 378.410156 206.910156 378.503906 206.902344 C 379.269531 206.839844 380.179688 206.601562 380.265625 206.367188 C 380.34375 206.148438 380.171875 205.546875 380.015625 205.015625 C 379.804688 204.292969 379.566406 203.46875 379.660156 202.816406 C 379.753906 202.175781 380.023438 201.597656 380.285156 201.039062 C 380.460938 200.664062 380.625 200.304688 380.742188 199.929688 C 379.769531 200.164062 377.464844 200.441406 375.625 198.507812 C 375.3125 198.753906 374.65625 199.292969 373.902344 200.050781 C 373.84375 200.109375 373.769531 200.136719 373.6875 200.128906 C 373.605469 200.117188 373.535156 200.074219 373.492188 200.007812 C 373.082031 199.359375 372.53125 198.976562 371.859375 198.871094 C 371.308594 198.785156 370.785156 198.9375 370.386719 199.308594 C 369.847656 199.816406 369.589844 200.65625 369.679688 201.621094 C 369.777344 202.648438 370.457031 203.765625 370.742188 204.199219 C 370.792969 204.273438 370.800781 204.367188 370.765625 204.449219 C 370.523438 205 370.34375 205.546875 370.226562 206.078125 C 369.617188 208.84375 368.136719 210.988281 366.25 211.867188 C 366.734375 212.203125 367.429688 212.5625 368.417969 212.914062 C 371.652344 214.066406 372.496094 213.1875 372.65625 212.949219 Z M 406.105469 244.417969 C 405.832031 244.246094 405.390625 244.050781 404.679688 243.863281 C 403.476562 243.546875 401.535156 243.007812 400.144531 242.625 C 399.925781 242.5625 399.722656 242.503906 399.535156 242.453125 C 399.410156 242.417969 399.292969 242.386719 399.1875 242.355469 C 398.765625 242.238281 398.5 242.164062 398.488281 242.160156 C 398.371094 242.128906 398.292969 242.019531 398.296875 241.894531 C 398.304688 241.773438 398.394531 241.671875 398.511719 241.652344 C 398.515625 241.652344 398.574219 241.640625 398.679688 241.613281 C 398.726562 241.601562 398.789062 241.589844 398.855469 241.570312 C 398.875 241.566406 398.894531 241.558594 398.914062 241.554688 C 399.308594 241.449219 399.980469 241.238281 400.859375 240.855469 C 401.097656 240.753906 401.277344 240.625 401.40625 240.492188 C 401.507812 240.394531 401.578125 240.292969 401.621094 240.203125 C 401.636719 240.171875 401.652344 240.140625 401.660156 240.113281 C 401.699219 239.996094 401.699219 239.890625 401.660156 239.816406 C 401.539062 239.59375 401.070312 239.449219 400.429688 239.433594 C 400.339844 239.429688 400.246094 239.429688 400.144531 239.433594 C 398.675781 239.476562 395.472656 239.695312 394.300781 239.886719 C 393.230469 240.058594 392.5625 240.289062 392.554688 240.292969 C 392.519531 240.304688 392.480469 240.308594 392.445312 240.304688 C 392.445312 240.304688 392.441406 240.304688 392.441406 240.304688 L 371.878906 238.195312 C 371.785156 238.1875 371.707031 238.128906 371.667969 238.046875 L 367.957031 230.089844 L 357.335938 233.292969 C 357.734375 234.167969 359.144531 237.175781 361.796875 242.074219 C 363.046875 244.386719 365.269531 247.21875 368.730469 247.558594 C 371.84375 247.863281 387.753906 248.164062 390.914062 248.21875 C 390.945312 248.21875 390.976562 248.226562 391.003906 248.238281 C 392.328125 248.742188 394.582031 249.574219 396.488281 250.109375 C 396.78125 250.191406 397.066406 250.269531 397.339844 250.332031 C 397.476562 250.367188 397.609375 250.398438 397.738281 250.425781 L 397.910156 250.464844 C 398.152344 250.515625 398.402344 250.570312 398.65625 250.625 C 399.648438 250.835938 400.714844 251.042969 401.773438 251.148438 C 403.582031 251.324219 404.339844 251.097656 404.449219 250.824219 C 404.472656 250.765625 404.519531 250.652344 404.457031 250.5 C 404.453125 250.488281 404.445312 250.476562 404.441406 250.464844 C 404.4375 250.457031 404.4375 250.453125 404.433594 250.445312 C 404.390625 250.363281 404.3125 250.269531 404.195312 250.167969 C 404.171875 250.148438 404.152344 250.132812 404.125 250.113281 C 404.058594 250.113281 404 250.117188 403.929688 250.117188 C 403.644531 250.117188 403.332031 250.105469 402.996094 250.082031 C 401.582031 249.984375 398.988281 249.488281 398.878906 249.46875 C 398.734375 249.441406 398.640625 249.304688 398.667969 249.160156 C 398.695312 249.019531 398.835938 248.925781 398.976562 248.953125 C 399.003906 248.960938 401.648438 249.464844 403.03125 249.5625 C 403.484375 249.59375 403.871094 249.601562 404.199219 249.589844 C 404.203125 249.589844 404.203125 249.589844 404.203125 249.589844 C 405.300781 249.554688 405.59375 249.324219 405.671875 249.207031 C 405.683594 249.191406 405.691406 249.179688 405.695312 249.164062 C 405.707031 249.128906 405.730469 249.074219 405.730469 249.003906 C 405.730469 248.992188 405.730469 248.976562 405.726562 248.960938 C 405.710938 248.816406 405.609375 248.621094 405.25 248.390625 C 404.949219 248.421875 404.613281 248.441406 404.234375 248.441406 C 404.078125 248.441406 403.910156 248.4375 403.734375 248.429688 C 402.316406 248.386719 399.441406 247.847656 399.316406 247.828125 C 399.175781 247.800781 399.082031 247.664062 399.109375 247.523438 C 399.136719 247.378906 399.269531 247.285156 399.414062 247.3125 C 399.445312 247.316406 402.375 247.863281 403.753906 247.910156 C 404.390625 247.929688 404.890625 247.90625 405.28125 247.859375 C 405.28125 247.859375 405.285156 247.859375 405.285156 247.859375 C 406.003906 247.773438 406.261719 247.605469 406.355469 247.492188 C 406.359375 247.488281 406.363281 247.484375 406.367188 247.476562 C 406.371094 247.472656 406.375 247.464844 406.378906 247.460938 C 406.390625 247.445312 406.394531 247.429688 406.402344 247.414062 C 406.421875 247.347656 406.429688 247.289062 406.425781 247.230469 C 406.421875 247.171875 406.402344 247.113281 406.375 247.058594 C 406.269531 246.871094 405.976562 246.609375 405.203125 246.335938 C 405.203125 246.335938 405.199219 246.335938 405.195312 246.335938 C 405.144531 246.316406 405.089844 246.296875 405.03125 246.28125 C 405.023438 246.277344 405.015625 246.273438 405.007812 246.273438 C 404.953125 246.253906 404.894531 246.238281 404.832031 246.21875 C 404.824219 246.214844 404.8125 246.214844 404.800781 246.210938 C 404.75 246.195312 404.691406 246.179688 404.636719 246.164062 C 404.628906 246.164062 404.621094 246.160156 404.613281 246.15625 C 404.527344 246.160156 404.4375 246.160156 404.347656 246.160156 C 404.1875 246.160156 404.019531 246.15625 403.84375 246.152344 C 402.429688 246.105469 399.945312 245.722656 399.839844 245.707031 C 399.699219 245.683594 399.597656 245.550781 399.621094 245.410156 C 399.644531 245.265625 399.777344 245.167969 399.921875 245.191406 C 399.945312 245.195312 402.480469 245.585938 403.863281 245.628906 C 404.160156 245.640625 404.429688 245.640625 404.671875 245.632812 C 404.746094 245.628906 404.816406 245.625 404.882812 245.625 C 404.90625 245.621094 404.929688 245.621094 404.949219 245.621094 C 405.011719 245.617188 405.070312 245.613281 405.128906 245.609375 C 405.15625 245.605469 405.179688 245.601562 405.207031 245.601562 C 405.253906 245.597656 405.300781 245.59375 405.34375 245.585938 C 405.375 245.582031 405.40625 245.582031 405.433594 245.578125 C 405.472656 245.570312 405.503906 245.566406 405.539062 245.5625 C 405.570312 245.558594 405.601562 245.550781 405.628906 245.546875 C 405.664062 245.542969 405.691406 245.535156 405.722656 245.53125 C 405.75 245.523438 405.773438 245.519531 405.800781 245.515625 C 405.832031 245.507812 405.859375 245.5 405.890625 245.492188 C 405.90625 245.488281 405.925781 245.484375 405.941406 245.480469 C 405.976562 245.472656 406.007812 245.460938 406.039062 245.453125 C 406.046875 245.449219 406.054688 245.445312 406.0625 245.445312 C 406.34375 245.351562 406.449219 245.242188 406.492188 245.175781 C 406.5 245.160156 406.507812 245.148438 406.511719 245.136719 C 406.550781 245.003906 406.542969 244.890625 406.484375 244.777344 C 406.425781 244.675781 406.316406 244.550781 406.105469 244.417969 Z M 473.21875 364.285156 L 484.339844 364.285156 L 484.339844 343.882812 L 473.21875 343.882812 Z M 456.25 279.257812 C 456.175781 278.960938 456.042969 278.480469 455.824219 277.890625 C 455.414062 276.777344 454.03125 273.890625 453.347656 272.597656 C 452.984375 271.914062 452.566406 271.472656 452.277344 271.472656 C 452.273438 271.472656 452.273438 271.472656 452.269531 271.472656 C 452.183594 271.476562 452.09375 271.527344 452.007812 271.621094 C 451.894531 271.75 451.78125 271.984375 451.753906 272.300781 C 451.746094 272.40625 451.746094 272.519531 451.757812 272.640625 C 451.914062 274.203125 452.207031 275.058594 452.210938 275.066406 C 452.222656 275.101562 452.222656 275.136719 452.222656 275.171875 C 452.230469 275.265625 452.1875 275.359375 452.101562 275.410156 C 452 275.476562 451.863281 275.460938 451.777344 275.375 C 451.746094 275.34375 448.710938 272.339844 447.246094 270.84375 C 446.335938 269.914062 445.828125 269.734375 445.5625 269.726562 C 445.433594 269.730469 445.328125 269.777344 445.234375 269.878906 C 445.210938 269.90625 445.179688 269.957031 445.164062 270.054688 C 445.136719 270.421875 445.371094 271.160156 446.109375 272.375 C 446.824219 273.550781 448.40625 275.558594 448.421875 275.578125 C 448.511719 275.691406 448.492188 275.855469 448.378906 275.945312 C 448.265625 276.035156 448.101562 276.015625 448.011719 275.902344 C 447.945312 275.820312 446.390625 273.851562 445.660156 272.644531 C 445.539062 272.445312 445.429688 272.257812 445.328125 272.074219 C 445.320312 272.066406 445.308594 272.0625 445.300781 272.054688 C 444.394531 271.128906 443.882812 270.945312 443.621094 270.945312 C 443.492188 270.945312 443.386719 270.992188 443.296875 271.09375 C 443.265625 271.125 443.226562 271.199219 443.21875 271.332031 C 443.222656 271.71875 443.46875 272.441406 444.167969 273.585938 C 444.878906 274.761719 446.792969 277.035156 446.8125 277.058594 C 446.90625 277.167969 446.890625 277.332031 446.78125 277.425781 C 446.730469 277.46875 446.671875 277.488281 446.613281 277.488281 C 446.535156 277.488281 446.460938 277.457031 446.410156 277.394531 C 446.332031 277.300781 444.453125 275.066406 443.714844 273.855469 C 443.429688 273.386719 443.207031 272.964844 443.039062 272.59375 C 442.394531 272.242188 442.1875 272.476562 442.109375 272.566406 C 442.085938 272.59375 442.046875 272.664062 442.042969 272.804688 C 442.058594 273.1875 442.332031 273.902344 443.070312 275.023438 C 443.832031 276.171875 445.574219 278.222656 445.589844 278.242188 C 445.683594 278.351562 445.667969 278.519531 445.558594 278.613281 C 445.511719 278.652344 445.449219 278.671875 445.390625 278.671875 C 445.316406 278.671875 445.242188 278.640625 445.1875 278.582031 C 445.117188 278.496094 443.410156 276.488281 442.632812 275.308594 C 442.417969 274.984375 442.238281 274.6875 442.085938 274.410156 C 441.894531 274.324219 441.746094 274.289062 441.632812 274.289062 C 441.410156 274.289062 441.316406 274.40625 441.269531 274.464844 C 441.230469 274.511719 441.207031 274.585938 441.207031 274.6875 C 441.226562 275.070312 441.519531 275.78125 442.300781 276.890625 C 443.0625 277.980469 443.980469 279.003906 444.789062 279.90625 L 444.90625 280.039062 C 446.871094 282.230469 451.296875 285.066406 451.339844 285.097656 C 451.382812 285.125 451.414062 285.164062 451.433594 285.210938 C 451.589844 285.417969 454.320312 288.949219 460.148438 293.023438 C 462.035156 294.339844 463.371094 295.003906 464.984375 295.289062 L 465.445312 285.625 L 456.355469 279.410156 C 456.304688 279.375 456.265625 279.320312 456.25 279.257812 Z M 488.933594 274.273438 C 488.894531 273.734375 488.617188 273.265625 488.148438 272.957031 C 487.074219 272.246094 485.898438 272.738281 485.445312 272.980469 C 485.371094 273.019531 485.285156 273.019531 485.210938 272.988281 C 485.136719 272.957031 485.082031 272.890625 485.0625 272.8125 L 484.277344 269.578125 C 483.503906 269.484375 480.59375 269.082031 478.949219 268.011719 C 478.589844 268.421875 478.304688 268.882812 478.117188 269.378906 C 477.941406 269.855469 477.871094 270.355469 477.800781 270.882812 C 477.71875 271.492188 477.632812 272.121094 477.363281 272.714844 C 477.089844 273.3125 476.445312 273.878906 475.875 274.375 C 475.457031 274.738281 474.984375 275.148438 474.933594 275.375 C 474.875 275.621094 475.515625 276.308594 476.125 276.773438 C 476.199219 276.832031 476.238281 276.921875 476.226562 277.015625 C 476.222656 277.039062 475.921875 279.300781 475.976562 280.03125 C 476.015625 280.582031 476.996094 281.183594 478.363281 281.496094 C 478.480469 281.523438 478.660156 281.554688 478.898438 281.589844 C 479.039062 281.609375 479.136719 281.734375 479.121094 281.875 C 479.070312 282.371094 479.011719 282.921875 478.957031 283.46875 L 481.160156 283.238281 C 481.160156 283.238281 481.1875 283.234375 481.1875 283.234375 L 483.453125 283.050781 C 483.480469 283.050781 483.507812 283.050781 483.535156 283.058594 C 484.9375 283.007812 486.15625 283.210938 487.007812 283.632812 L 487.21875 281.65625 L 486.234375 277.609375 C 486.203125 277.480469 486.269531 277.347656 486.394531 277.300781 C 487.027344 277.058594 487.527344 276.769531 487.886719 276.449219 C 488.609375 275.804688 488.988281 275.007812 488.933594 274.273438 Z M 488.933594 274.273438 " fill-opacity="1" fill-rule="nonzero"/><path fill="#ffc98b" d="M 379.492188 218.476562 C 380.539062 219.816406 383.082031 224.902344 386.855469 233.191406 L 376.464844 236.324219 C 376.238281 235.820312 376.007812 235.3125 375.78125 234.8125 C 375.738281 234.714844 375.640625 234.65625 375.53125 234.660156 C 375.425781 234.664062 375.332031 234.734375 375.296875 234.832031 L 374.1875 237.90625 L 372.082031 237.691406 L 368.339844 229.664062 C 368.28125 229.546875 368.148438 229.484375 368.023438 229.523438 L 356.894531 232.878906 C 356.824219 232.898438 356.765625 232.949219 356.734375 233.019531 C 356.703125 233.085938 356.703125 233.164062 356.730469 233.230469 C 356.746094 233.265625 358.144531 236.433594 361.332031 242.320312 C 363.214844 245.800781 365.757812 247.792969 368.679688 248.078125 C 369.085938 248.117188 369.707031 248.160156 370.484375 248.199219 L 369.128906 251.957031 L 349.050781 244.792969 L 342.953125 242.613281 L 352.378906 216.433594 C 353.578125 213.101562 356.648438 210.769531 360.152344 210.460938 C 360.671875 210.820312 361.210938 211.167969 361.757812 211.5 C 362.625 212.023438 363.515625 212.289062 364.386719 212.289062 C 364.820312 212.289062 365.25 212.222656 365.671875 212.09375 C 366.28125 212.574219 367.140625 213.011719 368.238281 213.40625 C 371.496094 214.566406 372.652344 213.789062 373.023438 213.335938 C 373.921875 213.832031 377.480469 215.890625 379.492188 218.476562 Z M 474.742188 366.425781 C 474.726562 366.449219 474.710938 366.480469 474.691406 366.511719 C 474.355469 367.105469 473.328125 368.902344 468.386719 370.378906 C 467.5 370.640625 466.675781 370.945312 465.941406 371.285156 C 465.90625 371.300781 465.871094 371.308594 465.832031 371.308594 C 465.800781 371.308594 465.765625 371.300781 465.738281 371.289062 C 465.671875 371.265625 465.617188 371.214844 465.589844 371.148438 L 464.820312 369.34375 C 461.765625 370.628906 460.425781 372.265625 459.851562 373.589844 L 484.339844 373.589844 L 484.339844 364.808594 L 475.285156 364.808594 C 475.246094 365.152344 475.121094 365.800781 474.742188 366.425781 Z M 468.234375 369.878906 C 472.976562 368.460938 473.921875 366.800781 474.234375 366.253906 C 474.257812 366.21875 474.273438 366.183594 474.292969 366.15625 C 474.601562 365.644531 474.714844 365.113281 474.757812 364.804688 L 473.109375 364.804688 C 472.773438 365.363281 471.328125 367.289062 466.824219 368.632812 C 466.277344 368.796875 465.777344 368.96875 465.308594 369.148438 L 465.96875 370.699219 C 466.664062 370.394531 467.421875 370.117188 468.234375 369.878906 Z M 459.453125 375.539062 L 484.339844 375.539062 L 484.339844 374.113281 L 459.660156 374.113281 C 459.460938 374.75 459.441406 375.265625 459.453125 375.539062 Z M 490.738281 293.972656 C 490.269531 288.417969 489.035156 285.292969 486.859375 284.140625 C 486.070312 283.722656 484.871094 283.523438 483.480469 283.585938 C 483.457031 283.585938 483.433594 283.582031 483.410156 283.578125 L 481.234375 283.753906 C 481.234375 283.753906 481.207031 283.757812 481.207031 283.757812 L 478.171875 284.078125 C 477.851562 284.113281 477.535156 284.152344 477.214844 284.191406 L 475.574219 284.390625 C 475.246094 284.433594 474.921875 284.476562 474.597656 284.515625 L 474.527344 284.527344 C 474.199219 284.570312 473.875 284.613281 473.550781 284.65625 C 469.886719 285.144531 466.722656 285.632812 465.964844 285.75 L 465.507812 295.363281 C 466.101562 295.441406 466.761719 295.46875 467.503906 295.472656 C 468.128906 295.472656 468.996094 295.449219 470.074219 295.402344 L 470.902344 295.367188 L 470.964844 295.625 L 470.953125 295.363281 L 471.339844 295.347656 C 471.421875 295.339844 471.507812 295.375 471.558594 295.433594 C 471.613281 295.492188 471.644531 295.574219 471.632812 295.652344 C 470.144531 304.226562 469.523438 316.125 469.429688 318.070312 L 490.195312 318.070312 C 490.378906 316.1875 491.53125 303.40625 490.738281 293.972656 Z M 490.738281 293.972656 " fill-opacity="1" fill-rule="nonzero"/><g fill="#ffbd59" fill-opacity="1"><g transform="translate(148.03759, 385.40688)"><g><path d="M 20.261719 0 L 81.289062 0 C 130.734375 0 158.234375 -27.015625 158.234375 -70.191406 L 158.234375 -101.308594 C 158.234375 -144.484375 130.734375 -171.257812 81.289062 -171.257812 L 20.261719 -171.257812 C 12.300781 -171.257812 9.648438 -168.605469 9.648438 -160.644531 L 9.648438 -10.613281 C 9.648438 -2.652344 12.300781 0 20.261719 0 Z M 65.609375 -48.484375 L 65.609375 -123.015625 L 78.394531 -123.015625 C 96.484375 -123.015625 102.273438 -115.058594 102.273438 -99.859375 L 102.273438 -71.640625 C 102.273438 -56.203125 96.484375 -48.484375 78.394531 -48.484375 Z M 65.609375 -48.484375 "/></g></g></g><g fill="#ffbd59" fill-opacity="1"><g transform="translate(489.565131, 385.40688)"><g><path d="M 20.261719 0 L 127.117188 0 C 135.078125 0 137.730469 -2.652344 137.730469 -10.613281 L 137.730469 -37.871094 C 137.730469 -45.828125 135.078125 -48.484375 127.117188 -48.484375 L 65.609375 -48.484375 L 65.609375 -62.230469 L 111.921875 -62.230469 C 119.882812 -62.230469 122.535156 -64.886719 122.535156 -72.84375 L 122.535156 -99.859375 C 122.535156 -107.820312 119.882812 -110.472656 111.921875 -110.472656 L 65.609375 -110.472656 L 65.609375 -123.015625 L 125.429688 -123.015625 C 133.390625 -123.015625 136.042969 -125.671875 136.042969 -133.628906 L 136.042969 -160.644531 C 136.042969 -168.605469 133.390625 -171.257812 125.429688 -171.257812 L 20.261719 -171.257812 C 12.300781 -171.257812 9.648438 -168.605469 9.648438 -160.644531 L 9.648438 -10.613281 C 9.648438 -2.652344 12.300781 0 20.261719 0 Z M 20.261719 0 "/></g></g></g><g fill="#ffbd59" fill-opacity="1"><g transform="translate(115.155309, 574.387087)"><g><path d="M 19.917969 0 L 51.457031 0 C 59.285156 0 61.890625 -2.371094 61.890625 -9.960938 L 61.890625 -24.425781 C 61.890625 -41.734375 61.179688 -51.933594 49.796875 -95.566406 L 52.644531 -95.566406 C 52.644531 -95.566406 62.128906 -66.398438 64.738281 -60.941406 L 75.410156 -37.46875 C 77.78125 -32.488281 80.386719 -30.589844 87.265625 -30.589844 L 108.132812 -30.589844 C 115.011719 -30.589844 117.617188 -32.722656 119.753906 -37.46875 L 129.949219 -60.941406 C 132.792969 -67.582031 143.230469 -95.566406 143.230469 -95.566406 L 146.074219 -95.566406 C 134.21875 -55.964844 133.269531 -41.734375 133.269531 -24.660156 L 133.269531 -9.960938 C 133.269531 -2.371094 135.878906 0 143.703125 0 L 177.375 0 C 185.203125 0 187.808594 -2.371094 187.808594 -9.960938 L 187.808594 -158.40625 C 187.808594 -165.992188 185.203125 -168.363281 177.375 -168.363281 L 146.785156 -168.363281 C 138.722656 -168.363281 136.113281 -167.417969 133.03125 -160.777344 L 98.171875 -87.503906 L 63.550781 -161.015625 C 60.707031 -167.179688 57.386719 -168.363281 48.847656 -168.363281 L 19.917969 -168.363281 C 12.09375 -168.363281 9.484375 -165.992188 9.484375 -158.40625 L 9.484375 -9.960938 C 9.484375 -2.371094 12.09375 0 19.917969 0 Z M 19.917969 0 "/></g></g></g><g fill="#ffbd59" fill-opacity="1"><g transform="translate(307.889184, 574.387087)"><g><path d="M 6.875 0 L 40.074219 0 C 51.695312 0 55.015625 -3.320312 57.148438 -10.90625 L 60.46875 -23.003906 L 105.050781 -23.003906 L 108.371094 -10.90625 C 110.03125 -3.320312 114.0625 0 126.390625 0 L 159.589844 0 C 166.941406 0 169.3125 -3.320312 166.941406 -10.195312 L 113.824219 -160.066406 C 111.453125 -166.703125 108.132812 -168.363281 101.019531 -168.363281 L 65.921875 -168.363281 C 58.808594 -168.363281 55.488281 -166.941406 53.117188 -159.828125 L 0.238281 -10.195312 C -2.132812 -3.320312 -0.710938 0 6.875 0 Z M 72.324219 -66.160156 L 77.542969 -85.367188 C 81.574219 -100.542969 81.335938 -117.855469 81.335938 -117.855469 L 83.707031 -117.855469 C 83.707031 -117.855469 84.183594 -100.308594 88.214844 -85.132812 L 93.429688 -66.160156 Z M 72.324219 -66.160156 "/></g></g></g><g fill="#ffbd59" fill-opacity="1"><g transform="translate(470.278397, 574.387087)"><g><path d="M 18.96875 0 L 55.015625 0 C 62.128906 0 64.5 -2.371094 64.5 -9.484375 L 64.5 -158.878906 C 64.5 -165.992188 62.128906 -168.363281 55.015625 -168.363281 L 18.96875 -168.363281 C 11.855469 -168.363281 9.484375 -165.992188 9.484375 -158.878906 L 9.484375 -9.484375 C 9.484375 -2.371094 11.855469 0 18.96875 0 Z M 18.96875 0 "/></g></g></g><g fill="#ffbd59" fill-opacity="1"><g transform="translate(539.737111, 574.387087)"><g><path d="M 75.644531 3.558594 C 116.195312 3.558594 152.238281 -13.28125 152.238281 -50.273438 C 152.238281 -98.171875 114.535156 -104.339844 87.503906 -108.371094 C 72.324219 -110.503906 60.707031 -112.164062 60.707031 -119.988281 C 60.707031 -125.207031 65.210938 -128.289062 77.78125 -128.289062 C 84.894531 -128.289062 93.90625 -127.339844 98.171875 -119.277344 C 101.96875 -112.164062 104.574219 -111.214844 111.453125 -114.0625 L 140.621094 -126.390625 C 147.972656 -129.476562 150.105469 -133.03125 146.546875 -140.144531 C 135.167969 -162.910156 113.351562 -171.921875 77.78125 -171.921875 C 31.777344 -171.921875 4.742188 -150.816406 4.742188 -118.804688 C 4.742188 -70.429688 45.53125 -65.449219 72.5625 -60.941406 C 86.078125 -58.808594 96.277344 -56.910156 96.277344 -50.035156 C 96.277344 -43.160156 88.449219 -41.734375 76.355469 -41.734375 C 64.976562 -41.734375 57.148438 -43.871094 53.355469 -50.273438 C 49.085938 -57.386719 45.53125 -57.625 38.179688 -55.015625 L 10.90625 -45.292969 C 3.792969 -42.683594 1.660156 -39.128906 4.269531 -31.777344 C 13.042969 -7.351562 41.972656 3.558594 75.644531 3.558594 Z M 75.644531 3.558594 "/></g></g></g></svg>